# xmcd
#
# Track frame offsets:
#	150
#	19319
#	36989
#	53049
#	71124
#	108464
#	134799
#	159406
#	183951
#
# Disc length: 2903 seconds
#
# Revision: 0
# Processed by: cddbd v1.5.2PL0 Copyright (c) Steve Scherf et al.
# Submitted via: EasyCDDAExtractor 15.2.5.1
#
DISCID=810b5509
DTITLE=Sash - Ecouador
DYEAR=1900
DGENRE=
TTITLE0=ecouador (original radio edit)
TTITLE1=ecouador (eat me edit) (bryce wayhe mix)
TTITLE2=ecouador (K-Klass club mix)
TTITLE3=ecouador (bruce wayme mix)
TTITLE4=ecouador (future breeze mix)
TTITLE5=ecouador (original 12'' mix)
TTITLE6=ecouador (power blash dub)
TTITLE7=ecouador (vol1)
TTITLE8=ecouador (vol2)
EXTD=
EXTT0=
EXTT1=
EXTT2=
EXTT3=
EXTT4=
EXTT5=
EXTT6=
EXTT7=
EXTT8=
PLAYORDER=
